<svg width="89" height="53" viewBox="0 0 89 53" fill="none" xmlns="http://www.w3.org/2000/svg">
<path d="M8.72953 15.1758H16.1944V18H5.21391V0.9375H8.72953V15.1758ZM21.24 18H17.7244V0.9375H21.24V18ZM72.1467 13.7695L76.0139 0.9375H79.928L73.9866 18H70.3186L64.4006 0.9375H68.303L72.1467 13.7695ZM84.5634 18H81.0478V0.9375H84.5634V18ZM10.5305 47.5234C10.5305 46.8594 10.2961 46.3516 9.82734 46C9.35859 45.6406 8.51484 45.2656 7.29609 44.875C6.07734 44.4766 5.1125 44.0859 4.40156 43.7031C2.46406 42.6562 1.49531 41.2461 1.49531 39.4727C1.49531 38.5508 1.75312 37.7305 2.26875 37.0117C2.79219 36.2852 3.53828 35.7188 4.50703 35.3125C5.48359 34.9062 6.57734 34.7031 7.78828 34.7031C9.00703 34.7031 10.093 34.9258 11.0461 35.3711C11.9992 35.8086 12.7375 36.4297 13.2609 37.2344C13.7922 38.0391 14.0578 38.9531 14.0578 39.9766H10.5422C10.5422 39.1953 10.2961 38.5898 9.80391 38.1602C9.31172 37.7227 8.62031 37.5039 7.72969 37.5039C6.87031 37.5039 6.20234 37.6875 5.72578 38.0547C5.24922 38.4141 5.01094 38.8906 5.01094 39.4844C5.01094 40.0391 5.28828 40.5039 5.84297 40.8789C6.40547 41.2539 7.22969 41.6055 8.31562 41.9336C10.3156 42.5352 11.7727 43.2812 12.6867 44.1719C13.6008 45.0625 14.0578 46.1719 14.0578 47.5C14.0578 48.9766 13.4992 50.1367 12.382 50.9805C11.2648 51.8164 9.76094 52.2344 7.87031 52.2344C6.55781 52.2344 5.3625 51.9961 4.28437 51.5195C3.20625 51.0352 2.38203 50.375 1.81172 49.5391C1.24922 48.7031 0.967968 47.7344 0.967968 46.6328H4.49531C4.49531 48.5156 5.62031 49.457 7.87031 49.457C8.70625 49.457 9.35859 49.2891 9.82734 48.9531C10.2961 48.6094 10.5305 48.1328 10.5305 47.5234ZM25.3612 48.4844H19.1972L18.0253 52H14.287L20.6386 34.9375H23.8964L30.2831 52H26.5448L25.3612 48.4844ZM20.1464 45.6367H24.412L22.2675 39.25L20.1464 45.6367ZM42.5944 37.7852H37.3678V52H33.8522V37.7852H28.6959V34.9375H42.5944V37.7852ZM56.9564 46.3164C56.8236 48.1523 56.1439 49.5977 54.9173 50.6523C53.6986 51.707 52.0892 52.2344 50.0892 52.2344C47.9017 52.2344 46.1791 51.5 44.9212 50.0312C43.6712 48.5547 43.0462 46.5312 43.0462 43.9609V42.918C43.0462 41.2773 43.3353 39.832 43.9134 38.582C44.4916 37.332 45.3158 36.375 46.3861 35.7109C47.4642 35.0391 48.7142 34.7031 50.1361 34.7031C52.1048 34.7031 53.6908 35.2305 54.8939 36.2852C56.097 37.3398 56.7923 38.8203 56.9798 40.7266H53.4642C53.3783 39.625 53.0697 38.8281 52.5384 38.3359C52.015 37.8359 51.2142 37.5859 50.1361 37.5859C48.9642 37.5859 48.0853 38.0078 47.4994 38.8516C46.9212 39.6875 46.6244 40.9883 46.6087 42.7539V44.043C46.6087 45.8867 46.8861 47.2344 47.4408 48.0859C48.0033 48.9375 48.8861 49.3633 50.0892 49.3633C51.1752 49.3633 51.9837 49.1172 52.515 48.625C53.0541 48.125 53.3627 47.3555 53.4408 46.3164H56.9564ZM72.4317 52H68.9161V44.6875H62.0606V52H58.545V34.9375H62.0606V41.8516H68.9161V34.9375H72.4317V52ZM88.8094 43.8555C88.8094 45.5352 88.5125 47.0078 87.9187 48.2734C87.325 49.5391 86.4734 50.5156 85.3641 51.2031C84.2625 51.8906 82.9969 52.2344 81.5672 52.2344C80.1531 52.2344 78.8914 51.8945 77.782 51.2148C76.6727 50.5352 75.8133 49.5664 75.2039 48.3086C74.5945 47.043 74.2859 45.5898 74.2781 43.9492V43.1055C74.2781 41.4258 74.5789 39.9492 75.1805 38.6758C75.7898 37.3945 76.6453 36.4141 77.7469 35.7344C78.8562 35.0469 80.1219 34.7031 81.5437 34.7031C82.9656 34.7031 84.2273 35.0469 85.3289 35.7344C86.4383 36.4141 87.2937 37.3945 87.8953 38.6758C88.5047 39.9492 88.8094 41.4219 88.8094 43.0938V43.8555ZM85.2469 43.082C85.2469 41.293 84.9266 39.9336 84.2859 39.0039C83.6453 38.0742 82.7312 37.6094 81.5437 37.6094C80.3641 37.6094 79.4539 38.0703 78.8133 38.9922C78.1727 39.9062 77.8484 41.25 77.8406 43.0234V43.8555C77.8406 45.5977 78.1609 46.9492 78.8016 47.9102C79.4422 48.8711 80.3641 49.3516 81.5672 49.3516C82.7469 49.3516 83.6531 48.8906 84.2859 47.9688C84.9187 47.0391 85.2391 45.6875 85.2469 43.9141V43.082Z" fill="black"/>
</svg>
