<svg width="1439" height="682" viewBox="0 0 1439 682" fill="none" xmlns="http://www.w3.org/2000/svg">
<path fill-rule="evenodd" clip-rule="evenodd" d="M0 292.286L39.6 341C80.4 389.714 159.6 487.143 240 487.143C320.4 487.143 399.6 389.714 480 373.476C560.4 357.238 639.6 422.19 720 470.905C800.4 519.619 879.6 552.095 960 470.905C1040.4 389.714 1119.6 194.857 1200 97.4286C1280.4 0 1359.6 0 1400.4 0H1440V682H1400.4C1359.6 682 1280.4 682 1200 682C1119.6 682 1040.4 682 960 682C879.6 682 800.4 682 720 682C639.6 682 560.4 682 480 682C399.6 682 320.4 682 240 682C159.6 682 80.4 682 39.6 682H0V292.286Z" fill="#4A5761"/>
</svg>
