<?xml version="1.0" encoding="utf-8"?>
<!-- Generator: Adobe Illustrator 23.1.0, SVG Export Plug-In . SVG Version: 6.00 Build 0)  -->
<svg version="1.1" id="Layer_1" xmlns="http://www.w3.org/2000/svg" xmlns:xlink="http://www.w3.org/1999/xlink" x="0px" y="0px"
	 viewBox="0 0 1439 682" style="enable-background:new 0 0 1439 682;" xml:space="preserve">
<style type="text/css">
	.st0{fill-rule:evenodd;clip-rule:evenodd;fill:#7B8D9A;}
	.st1{fill-rule:evenodd;clip-rule:evenodd;fill:#4A5761;}
</style>
<path class="st0" d="M0,252.2l39.6,13.9c40.8,13.9,120.1,43.8,200.6,57.7c79.3,13.9,159.8,13.9,239.1,71.6
	c80.5,57.7,160.9,171.1,240.2,157.2C800,538.7,879.3,395.5,959.7,296c79.3-101.5,159.8-159.2,240.2-214.9
	c79.3-57.7,159.8-115.4,239.1-43.8c0,96.6,0,275.3,0,385v113.8V682c-79.3,0-159.8,0-239.1,0c-80.5,0-160.9,0-240.2,0
	c-80.5,0-159.8,0-240.2,0c-79.3,0-159.8,0-240.2,0c-79.3,0-159.8,0-239.1,0c-80.5,0-159.8,0-200.6,0H0V252.2z"/>
<path class="st1" d="M0,292.3L39.6,341c40.8,48.7,120,146.1,200.4,146.1s159.6-97.4,240-113.7c80.4-16.2,159.6,48.7,240,97.4
	c80.4,48.7,159.6,81.2,240,0c80.4-81.2,159.6-276,240-373.5C1280.4,0,1359.6,0,1400.4,0h39.6v682h-39.6c-40.8,0-120,0-200.4,0
	s-159.6,0-240,0s-159.6,0-240,0s-159.6,0-240,0s-159.6,0-240,0s-159.6,0-200.4,0H0V292.3z"/>
</svg>
