<svg width="1439" height="678" viewBox="0 0 1439 678" fill="none" xmlns="http://www.w3.org/2000/svg">
<path fill-rule="evenodd" clip-rule="evenodd" d="M0 248.207L39.6483 262.136C80.4627 276.064 159.759 305.911 240.222 319.839C319.519 333.768 399.981 333.768 479.278 391.471C559.741 449.175 640.203 562.593 719.5 548.664C799.963 534.736 879.259 391.471 959.722 291.982C1039.02 190.504 1119.48 132.8 1199.94 77.086C1279.24 19.3824 1359.7 -38.3213 1439 33.3108C1439 129.866 1439 308.642 1439 418.269V532.112V678C1359.7 678 1279.24 678 1199.94 678C1119.48 678 1039.02 678 959.722 678C879.259 678 799.963 678 719.5 678C640.203 678 559.741 678 479.278 678C399.981 678 319.519 678 240.222 678C159.759 678 80.4627 678 39.6483 678H0V248.207Z" fill="#7B8D9A"/>
</svg>
